HIERARCHY
ROOT hip
{
  OFFSET 0 0 0
  CHANNELS 6 Xposition Yposition Zposition Zrotation Yrotation Xrotation
  JOINT abdomen
  {
    OFFSET 0 20.6881 -0.73152
    CHANNELS 3 Zrotation Xrotation Yrotation
    JOINT chest
    {
      OFFSET 0 11.7043 -0.48768
      CHANNELS 3 Zrotation Xrotation Yrotation
      JOINT neck
      {
        OFFSET 0 22.1894 -2.19456
        CHANNELS 3 Zrotation Xrotation Yrotation
        JOINT head
        {
          OFFSET -0.24384 7.07133 1.2192
          CHANNELS 3 Zrotation Xrotation Yrotation
          JOINT leftEye
          {
            OFFSET 4.14528 8.04674 8.04672
            CHANNELS 3 Zrotation Xrotation Yrotation
            End Site
            {
              OFFSET 1 0 0
            }
          }
          JOINT rightEye
          {
            OFFSET -3.6576 8.04674 8.04672
            CHANNELS 3 Zrotation Xrotation Yrotation
            End Site
            {
              OFFSET 1 0 0
            }
          }
        }
      }
      JOINT rCollar
      {
        OFFSET -2.68224 19.2634 -4.8768
        CHANNELS 3 Zrotation Xrotation Yrotation
        JOINT rShldr
        {
          OFFSET -8.77824 -1.95073 1.46304
          CHANNELS 3 Zrotation Xrotation Yrotation
          JOINT rForeArm
          {
            OFFSET -28.1742 -1.7115 0.48768
            CHANNELS 3 Zrotation Xrotation Yrotation
            JOINT rHand
            {
              OFFSET -22.5879 0.773209 7.07136
              CHANNELS 3 Zrotation Xrotation Yrotation
              JOINT rThumb1
              {
                OFFSET -1.2192 -0.487915 3.41376
                CHANNELS 3 Zrotation Xrotation Yrotation
                JOINT rThumb2
                {
                  OFFSET -3.37035 -0.52449 3.41376
                  CHANNELS 3 Zrotation Xrotation Yrotation
                  End Site
                  {
                    OFFSET -1.78271 -1.18214 1.43049
                  }
                }
              }
              JOINT rIndex1
              {
                OFFSET -7.75947 0.938293 5.60832
                CHANNELS 3 Zrotation Xrotation Yrotation
                JOINT rIndex2
                {
                  OFFSET -2.54057 -0.884171 1.56538
                  CHANNELS 3 Zrotation Xrotation Yrotation
                  End Site
                  {
                    OFFSET -1.62519 -0.234802 1.16502
                  }
                }
              }
              JOINT rMid1
              {
                OFFSET -8.24714 1.18213 3.41376
                CHANNELS 3 Zrotation Xrotation Yrotation
                JOINT rMid2
                {
                  OFFSET -3.10165 -0.590103 1.0647
                  CHANNELS 3 Zrotation Xrotation Yrotation
                  End Site
                  {
                    OFFSET -2.48547 -0.328903 0.83742
                  }
                }
              }
              JOINT rRing1
              {
                OFFSET -8.82822 0.546677 1.51678
                CHANNELS 3 Zrotation Xrotation Yrotation
                JOINT rRing2
                {
                  OFFSET -2.60934 -0.819778 -0.0198488
                  CHANNELS 3 Zrotation Xrotation Yrotation
                  End Site
                  {
                    OFFSET -2.33842 -0.294052 0.168128
                  }
                }
              }
              JOINT rPinky1
              {
                OFFSET -8.27202 -0.0477905 -0.4584
                CHANNELS 3 Zrotation Xrotation Yrotation
                JOINT rPinky2
                {
                  OFFSET -1.82734 -0.647385 -0.700984
                  CHANNELS 3 Zrotation Xrotation Yrotation
                  End Site
                  {
                    OFFSET -1.69225 -0.51767 -0.607171
                  }
                }
              }
            }
          }
        }
      }
      JOINT lCollar
      {
        OFFSET 2.68224 19.2634 -4.8768
        CHANNELS 3 Zrotation Xrotation Yrotation
        JOINT lShldr
        {
          OFFSET 8.77824 -1.95073 1.46304
          CHANNELS 3 Zrotation Xrotation Yrotation
          JOINT lForeArm
          {
            OFFSET 28.1742 -1.7115 0.48768
            CHANNELS 3 Zrotation Xrotation Yrotation
            JOINT lHand
            {
              OFFSET 22.5879 0.773209 7.07136
              CHANNELS 3 Zrotation Xrotation Yrotation
              JOINT lThumb1
              {
                OFFSET 1.2192 -0.487915 3.41376
                CHANNELS 3 Zrotation Xrotation Yrotation
                JOINT lThumb2
                {
                  OFFSET 3.37035 -0.52449 3.41376
                  CHANNELS 3 Zrotation Xrotation Yrotation
                  End Site
                  {
                    OFFSET 1.78271 -1.18214 1.43049
                  }
                }
              }
              JOINT lIndex1
              {
                OFFSET 7.75947 0.938293 5.60832
                CHANNELS 3 Zrotation Xrotation Yrotation
                JOINT lIndex2
                {
                  OFFSET 2.54057 -0.884171 1.56538
                  CHANNELS 3 Zrotation Xrotation Yrotation
                  End Site
                  {
                    OFFSET 1.62519 -0.234802 1.16502
                  }
                }
              }
              JOINT lMid1
              {
                OFFSET 8.24714 1.18213 3.41376
                CHANNELS 3 Zrotation Xrotation Yrotation
                JOINT lMid2
                {
                  OFFSET 3.10165 -0.590103 1.0647
                  CHANNELS 3 Zrotation Xrotation Yrotation
                  End Site
                  {
                    OFFSET 2.48547 -0.328903 0.83742
                  }
                }
              }
              JOINT lRing1
              {
                OFFSET 8.82822 0.546677 1.51678
                CHANNELS 3 Zrotation Xrotation Yrotation
                JOINT lRing2
                {
                  OFFSET 2.60934 -0.819778 -0.0198488
                  CHANNELS 3 Zrotation Xrotation Yrotation
                  End Site
                  {
                    OFFSET 2.33842 -0.294052 0.168128
                  }
                }
              }
              JOINT lPinky1
              {
                OFFSET 8.27202 -0.0477905 -0.4584
                CHANNELS 3 Zrotation Xrotation Yrotation
                JOINT lPinky2
                {
                  OFFSET 1.82734 -0.647385 -0.700984
                  CHANNELS 3 Zrotation Xrotation Yrotation
                  End Site
                  {
                    OFFSET 1.69225 -0.51767 -0.607171
                  }
                }
              }
            }
          }
        }
      }
    }
  }
  JOINT rButtock
  {
    OFFSET -8.77824 4.35084 1.2192
    CHANNELS 3 Zrotation Xrotation Yrotation
    JOINT rThigh
    {
      OFFSET 0 -1.70687 -2.19456
      CHANNELS 3 Zrotation Xrotation Yrotation
      JOINT rShin
      {
        OFFSET 0 -36.8199 0.73152
        CHANNELS 3 Zrotation Xrotation Yrotation
        JOINT rFoot
        {
          OFFSET 0.73152 -45.1104 -5.12064
          CHANNELS 3 Zrotation Xrotation Yrotation
          End Site
          {
            OFFSET -1.1221 -3.69964 12.103
          }
        }
      }
    }
  }
  JOINT lButtock
  {
    OFFSET 8.77824 4.35084 1.2192
    CHANNELS 3 Zrotation Xrotation Yrotation
    JOINT lThigh
    {
      OFFSET 0 -1.70687 -2.19456
      CHANNELS 3 Zrotation Xrotation Yrotation
      JOINT lShin
      {
        OFFSET 0 -36.8199 0.73152
        CHANNELS 3 Zrotation Xrotation Yrotation
        JOINT lFoot
        {
          OFFSET -0.73152 -45.1104 -5.12064
          CHANNELS 3 Zrotation Xrotation Yrotation
          End Site
          {
            OFFSET 1.1221 -3.69964 12.103
          }
        }
      }
    }
  }
}
MOTION
Frames:	4
Frame Time:	0.03333
0.010475081391632557 1.4762297868728638 -0.021698113530874252 6.2168629467487335 -4.063764587044716 -7.568315416574478 6.970231086015701 11.961827427148819 10.523692667484283 3.075469136238098 -5.004169195890427 0.23755956441164017 -3.6111290752887726 6.554987579584122 1.5128874219954014 5.658109858632088 2.086363323032856 -6.513649374246597 -9.383525177836418 -4.474660903215408 5.341785214841366 7.9562124609947205 -4.1827936470508575 2.6818024925887585 7.450944632291794 3.1180324405431747 -3.8578614592552185 -0.4058321379125118 1.7576934769749641 -4.840083718299866 -4.517216831445694 -4.589393399655819 1.0365745425224304 -10.03819540143013 4.706662595272064 4.947146438062191 -1.5557635389268398 -1.6196356527507305 4.980933889746666 -1.395827941596508 7.724275141954422 -8.740961104631424 1.3384751044213772 -3.0501561239361763 2.992095686495304 3.0337433516979218 8.012805059552193 3.5868141800165176 2.90583785623312 3.458590507507324 5.680148899555206 -4.738729074597359 -2.6126593351364136 -1.5429487824440002 -1.5396935865283012 3.2981866970658302 -1.0919839516282082 -3.7167098745703697 -5.70234015583992 -3.4349840506911278 -7.63005718588829 -4.7086722403764725 2.5766634196043015 4.772947020828724 -5.257296971976757 -3.135881870985031 1.9883973151445389 7.782627269625664 -3.8619444519281387 -4.547007791697979 5.5725836008787155 -8.98830771446228 8.78364510834217 -3.02370049059391 -9.705291017889977 -4.90913987159729 4.51879195868969 -8.19830797612667 -1.9375091046094894 0.8057132922112942 -0.05118286586366594 5.55629588663578 -6.586968898773193 5.331376902759075 2.391506675630808 7.2795769572258 4.010454677045345 3.251558504998684 3.5822517424821854 1.2410851009190083 -3.727276772260666 -5.611345544457436 -2.920253723859787 -5.761334002017975 13.357238620519638 5.84633857011795 -1.9963829219341278 -10.995493233203888 -6.1141712218523026 0.7328475639224052 -10.115292817354202 -0.7888775691390038 -5.445712432265282 7.474152445793152 -8.9639613032341 6.537865027785301 7.310847491025925 -8.282791525125504 -0.06372911855578423 -9.218771159648895 4.077459946274757 -1.5522371046245098 -4.937555864453316 -12.379400432109833 11.349955201148987 2.0217083394527435 4.465355984866619 -4.512052237987518 4.609550200402737 7.060629576444626 2.4761536717414856 -1.7523622512817383 6.971762627363205 8.262762129306793 -4.413639642298222 -1.5214341133832932 9.546669870615005 6.220093667507172 -15.767521262168884 -0.02542987174820155 -8.033084571361542 4.091421850025654
0.05926106218248606 11.10044002532959 -0.04674204811453819 -11.451879143714905 -1.9123115949332714 -0.6603377312421799 4.2828065156936646 12.397909015417099 18.558830469846725 -19.742860794067383 8.112184926867485 3.4996916726231575 -0.186789371073246 15.78485369682312 7.549056485295296 10.06657786667347 -7.060447856783867 -8.721239492297173 -12.028820961713791 -0.2730954810976982 5.605912059545517 10.064797550439835 -7.941535413265228 5.531152859330177 1.1408983916044235 -13.109191954135895 4.635646417737007 5.643399953842163 17.88981780409813 -10.13796217739582 -7.559393718838692 -18.831105530261993 4.922298118472099 -14.511336833238602 -6.992882341146469 -0.12472573667764664 -4.391999915242195 8.620060533285141 -9.644571170210838 -11.60204529762268 -1.8340643495321274 -11.095518171787262 3.441363349556923 -3.2740699499845505 3.517378158867359 7.051821872591972 5.0218892097473145 -9.874779805541039 5.837509408593178 6.249685809016228 -10.30259683728218 -11.995758712291718 10.025928318500519 -7.354186624288559 -10.09849414229393 0.055030882358551025 14.298239350318909 0.5449102073907852 -7.989503368735313 9.44332905113697 -16.343608796596527 9.81416255235672 -15.264459550380707 -1.1655136942863464 -6.153092086315155 3.9823320508003235 1.676899641752243 4.761631786823273 -14.578448385000229 -26.496971547603607 12.333244979381561 -7.507980465888977 9.574552774429321 8.603542149066925 -17.002590000629425 -15.540272444486618 -2.0029275119304657 0.7588472217321396 -3.187590502202511 5.987544134259224 4.428700916469097 14.53952819108963 -13.34571585059166 1.740722805261612 -13.385405838489532 -0.14201559126377106 21.533047556877136 -13.56486976146698 9.569602087140083 7.2831422835588455 -13.497263342142105 2.486385963857174 8.641915172338486 -7.002213075757027 36.06956362724304 0.43673940002918243 -1.9175564870238304 -24.58278626203537 0.5174202471971512 -0.8423842862248421 -19.10213738679886 -10.56624323129654 -2.733435519039631 5.7344066351652145 -17.376413494348526 3.812423497438431 2.760787010192871 -6.8808551877737045 2.5245437398552895 -0.5816651880741119 -1.0844787955284119 -9.864974990487099 -13.906819224357605 -24.322904348373413 5.7093695551157 21.357682049274445 8.599176853895187 -4.182097613811493 7.90852278470993 -1.8269678950309753 6.609002575278282 5.494244322180748 4.84493650496006 8.339798524975777 -26.948100328445435 -9.563999623060226 4.946041703224182 27.984983325004578 -17.36527293920517 0.7416937407106161 -20.133017599582672 -3.079593703150749
0.06261489354074001 52.531978607177734 -0.012253690510988235 -15.618527233600616 -10.770567208528519 6.331730559468269 -6.351719051599503 12.209524065256119 4.171172305941582 -6.213556453585625 -3.5242650657892227 4.092037416994572 -3.3385274559259415 20.475773066282272 1.9825690425932407 7.6171644777059555 -24.020831286907196 -7.551103010773659 1.2951596081256866 -0.668984167277813 1.6998117417097092 4.606628268957138 -1.8148469924926758 0.7789973169565201 -0.9290333837270737 -7.009835243225098 4.952098801732063 42.57653295993805 33.452210426330566 10.201341435313225 -20.084355622529984 -28.59004944562912 48.6002379655838 -7.186426520347595 -9.945059716701508 -3.531504012644291 -3.4201524406671524 3.4637296199798584 -3.7423688918352127 -6.303000748157501 -3.5029924660921097 -5.957551002502441 2.38358611240983 -1.3032350689172745 0.9406121447682381 7.059368267655373 4.606807976961136 -5.564948692917824 0.5787865072488785 2.9029058665037155 -5.930231362581253 1.5534932166337967 5.132889747619629 -4.37434159219265 -6.701662838459015 2.5097329169511795 7.801251858472824 9.16956938803196 -3.794143572449684 3.5193539410829544 -4.355562776327133 3.201439082622528 -8.896693512797356 -2.137540876865387 -2.4325114488601685 3.1913217902183533 1.780712530016899 0.19177258014678955 -4.991617798805237 -60.66924512386322 26.310684084892273 -20.43931782245636 25.123246014118195 -11.73766314983368 -50.260562896728516 -0.13917597010731697 3.3664901554584503 5.591546818614006 -0.7498836144804955 4.506302252411842 0.7760604657232761 5.45367456972599 -5.436289496719837 -0.45601241290569305 -4.956247508525848 -0.4145434498786926 6.875585317611694 -14.431341290473938 6.78058885037899 4.287759214639664 -5.849089175462723 0.23379642516374588 5.326600223779678 -5.918917134404182 14.3381667137146 -1.1886604875326157 0.2017360646277666 -8.982295542955399 -0.022438690066337585 -10.607432574033737 -4.5364248007535934 -3.5995828360319138 -3.003876283764839 0.7809620350599289 -7.533763200044632 0.26880763471126556 0.13860315084457397 -1.5391340106725693 -0.6047412380576134 2.5753404200077057 -3.0059321969747543 -29.979240596294403 -34.96978282928467 -27.689116895198822 -11.354324519634247 60.37957727909088 14.365875273942947 -2.5304006785154343 -2.2982900217175484 -3.3908861875534058 6.619822606444359 5.131365582346916 -0.6921648234128952 37.58847177028656 -33.01516592502594 20.14046609401703 11.02358065545559 60.3292053937912 -14.672074913978577 4.044445306062698 -15.279227793216705 12.172025442123413
0.04408078081905842 60.2432746887207 0.04175246134400368 -13.215125799179077 -13.822545558214188 6.221770718693733 -8.01009401679039 13.201061636209488 0.0511275976896286 1.7109227925539017 -10.34484900534153 2.111824192106724 -5.269162729382515 17.65332743525505 -3.050135001540184 7.546997889876366 -24.06407117843628 -8.67766298353672 0.4427415132522583 -0.5585053190588951 0.4591023176908493 0.8394871652126312 -0.21501123905181885 -0.07078014314174652 -0.03991864621639252 -1.281440109014511 0.823095515370369 49.65201795101166 33.96043539047241 15.693584829568863 -24.63281750679016 -24.69743460416794 61.36639416217804 -7.007330060005188 -9.0684212744236 0.23226823657751083 -0.5602200888097286 0.6957368552684784 -0.36337293684482574 -1.3327578082680702 -0.4216761142015457 -0.8053010702133179 0.5037545599043369 -0.14154888689517975 0.22338945418596268 7.700528874993324 5.696439296007156 -0.5793336778879166 -0.026298388838768005 0.45179883018136024 -0.33529356122016907 2.7665651589632034 1.4052334427833557 -0.47871194779872894 -0.900892149657011 0.713505819439888 1.3972904160618782 10.223302021622658 0.08837543427944183 0.49353785812854767 -0.502011626958847 0.36513447761535645 -1.5317069739103317 0.6871215999126434 -0.9905558824539185 0.284196138381958 0.4565461724996567 0.41833341121673584 -0.4858712665736675 -62.552552819252014 28.26861083507538 -24.498669505119324 28.57659012079239 -22.106857895851135 -54.7388756275177 7.365494817495346 3.5186679661273956 2.3405539244413376 -0.47400232404470444 0.6465070880949497 0.5659013008698821 1.1002562195062637 -0.9599374607205391 0.07476992905139923 -0.5289879441261292 -0.02823561429977417 0.498557947576046 -8.285609856247902 5.752514228224754 0.22192190866917372 -0.8850818686187267 -0.0070337578654289246 0.8633078634738922 -3.5645437985658646 2.8797905892133713 -0.5073686689138412 0.4418903309851885 -1.2257520854473114 -0.03113977611064911 -11.368514746427536 -0.10659568011760712 -0.016816863790154457 -1.0041996091604233 0.1535128802061081 -0.8744058385491371 -1.4435253292322159 -0.541926920413971 -0.043330416083335876 -0.1094445213675499 0.31575098633766174 -0.6067337840795517 -31.923209130764008 -37.22098767757416 -26.555738747119904 -13.219124972820282 62.56946682929993 13.204659819602966 -4.82939712703228 -5.430396683514118 -0.6389665603637695 1.158619662746787 0.7917123287916183 -0.3303670138120651 42.37054467201233 -27.564804553985596 29.377366304397583 14.712286591529846 60.36146700382233 -15.51164522767067 4.045319706201553 -8.716699182987213 19.299094676971436
